<svg width="422" height="114" viewBox="0 0 422 114" fill="none" xmlns="http://www.w3.org/2000/svg">
<path fill-rule="evenodd" clip-rule="evenodd" d="M50.54 3.94C32.4771 3.94 19.5364 10.1889 11.3871 22.5076L11.3822 22.515L11.3772 22.5223C8.06034 27.4103 5.68913 33.0363 4.27841 39.42H34.6213C35.1418 37.8544 35.852 36.4654 36.7678 35.2737C39.578 31.5672 43.7685 29.8 49.06 29.8C52.9589 29.8 56.2153 30.8033 58.6376 32.9881C61.101 35.1211 62.4 37.7892 62.4 40.92C62.4 44.4313 60.6317 47.6622 57.4835 50.6006C54.3776 53.4994 48.0637 57.6221 38.705 62.9419C38.7038 62.9426 38.7025 62.9434 38.7013 62.9441L4.68003 82.4882V107.5H94.18V82.38H62.9364L50.52 84.251V79.5796L53.8092 78.7025L55.9119 78.0016C81.9547 66.1948 94.18 53.0017 94.18 38.7C94.18 28.7923 90.3372 20.5713 82.5701 13.9408L82.5632 13.9349C74.922 7.33142 64.3096 3.94 50.54 3.94ZM8.88985 20.8451C17.7115 7.51535 31.7051 0.940002 50.54 0.940002C64.7901 0.940002 76.1794 4.45445 84.522 11.6626C92.9335 18.8449 97.18 27.8895 97.18 38.7C97.18 54.6077 83.8962 68.2765 58.8202 79.9664L62.7117 79.38H97.18V110.5H1.68003V80.7518L37.2128 60.3393L37.2188 60.336C46.6047 55.0008 52.6229 51.0335 55.4366 48.4074C58.2083 45.8204 59.4 43.3287 59.4 40.92C59.4 38.7284 58.533 36.8617 56.6636 35.2472L56.6505 35.2359L56.6377 35.2243C54.9173 33.6678 52.4556 32.8 49.06 32.8C44.4871 32.8 41.2787 34.2873 39.1557 37.0898L39.149 37.0986C38.3057 38.1948 37.643 39.5829 37.1906 41.3017L36.8964 42.42H0.629639L0.966175 40.6412C2.38075 33.1641 5.01557 26.5569 8.88985 20.8451ZM160.106 3.94C144.471 3.94 131.848 8.89594 122.1 18.7395C112.455 28.4802 107.586 41.2513 107.586 57.2C107.586 73.1459 112.453 85.9683 122.101 95.8091C131.847 105.552 144.47 110.46 160.106 110.46C175.746 110.46 188.318 105.55 197.964 95.8086C207.711 85.9663 212.626 73.1441 212.626 57.2C212.626 41.2557 207.711 28.4863 197.97 18.7447L197.964 18.7395L197.959 18.7342C188.312 8.89582 175.742 3.94 160.106 3.94ZM119.968 16.6285C130.348 6.14673 143.773 0.940002 160.106 0.940002C176.436 0.940002 189.813 6.1451 200.096 16.6285C210.479 27.0142 215.626 40.5871 215.626 57.2C215.626 73.8159 210.477 87.4364 200.096 97.9195C189.812 108.306 176.434 113.46 160.106 113.46C143.778 113.46 130.355 108.306 119.974 97.9247L119.968 97.9195L119.963 97.9142C109.683 87.4303 104.586 73.8116 104.586 57.2C104.586 40.5887 109.683 27.0158 119.968 16.6285ZM271.817 3.94C253.754 3.94 240.814 10.1889 232.664 22.5076L232.66 22.515L232.655 22.5223C229.338 27.4103 226.966 33.0363 225.556 39.42H255.899C256.419 37.8536 257.13 36.464 258.047 35.2719C260.857 31.5667 265.047 29.8 270.337 29.8C274.236 29.8 277.493 30.8033 279.915 32.9882C282.378 35.1212 283.677 37.7891 283.677 40.92C283.677 44.4313 281.909 47.6622 278.761 50.6006C275.655 53.4996 269.34 57.6226 259.981 62.9428C259.98 62.9432 259.979 62.9436 259.979 62.9441L225.957 82.4882V107.5H315.457V82.38H284.214L271.797 84.251V79.5796L275.087 78.7025L277.189 78.0016C303.232 66.1948 315.457 53.0017 315.457 38.7C315.457 28.7923 311.615 20.5713 303.847 13.9408L303.841 13.9349C296.199 7.33142 285.587 3.94 271.817 3.94ZM230.167 20.8448C238.989 7.51527 252.983 0.940002 271.817 0.940002C286.069 0.940002 297.459 4.45502 305.801 11.6644C314.212 18.8464 318.457 27.8903 318.457 38.7C318.457 54.6077 305.174 68.2765 280.098 79.9664L283.989 79.38H318.457V110.5H222.957V80.7518L258.496 60.336C267.882 55.0008 273.9 51.0335 276.714 48.4074C279.486 45.8204 280.677 43.3287 280.677 40.92C280.677 38.7284 279.81 36.8617 277.941 35.2472L277.928 35.2359L277.915 35.2243C276.195 33.6678 273.733 32.8 270.337 32.8C265.764 32.8 262.556 34.2873 260.433 37.0898L260.426 37.0986C259.583 38.1948 258.92 39.5829 258.468 41.3017L258.174 42.42H221.907L222.244 40.6412C223.658 33.164 226.293 26.5567 230.167 20.8448ZM374.724 3.94C356.661 3.94 343.72 10.1889 335.571 22.5076L335.566 22.515L335.561 22.5223C332.244 27.4103 329.873 33.0363 328.462 39.42H358.805C359.326 37.8536 360.036 36.464 360.953 35.2719C363.763 31.5667 367.953 29.8 373.244 29.8C377.142 29.8 380.399 30.8033 382.821 32.9882C385.285 35.1212 386.584 37.7891 386.584 40.92C386.584 44.4313 384.815 47.6622 381.667 50.6006C378.561 53.4996 372.247 57.6226 362.887 62.9428C362.886 62.9432 362.886 62.9436 362.885 62.9441L328.864 82.4882V107.5H418.364V82.38H387.12L374.704 84.251V79.5796L377.993 78.7025L380.095 78.0016C406.138 66.1948 418.364 53.0017 418.364 38.7C418.364 28.7923 414.521 20.5713 406.754 13.9408L406.747 13.9349C399.106 7.33142 388.493 3.94 374.724 3.94ZM333.074 20.844C341.896 7.515 355.889 0.940002 374.724 0.940002C388.975 0.940002 400.365 4.45502 408.708 11.6644C417.118 18.8464 421.364 27.8903 421.364 38.7C421.364 54.6077 408.08 68.2765 383.004 79.9664L386.895 79.38H421.364V110.5H325.864V80.7518L361.402 60.336C370.788 55.0008 376.806 51.0335 379.62 48.4074C382.392 45.8204 383.584 43.3287 383.584 40.92C383.584 38.7284 382.717 36.8617 380.847 35.2472L380.834 35.2359L380.821 35.2243C379.101 33.6678 376.639 32.8 373.244 32.8C368.671 32.8 365.462 34.2873 363.339 37.0898L363.333 37.0986C362.489 38.1948 361.827 39.5829 361.374 41.3017L361.08 42.42H324.813L325.15 40.6412C326.564 33.1636 329.199 26.5561 333.074 20.844ZM144.885 36.8621C148.734 32.1577 153.855 29.8 160.106 29.8C166.355 29.8 171.433 32.1565 175.186 36.8702C179.042 41.5891 180.846 48.4498 180.846 57.2C180.846 65.9503 179.042 72.8109 175.186 77.5298C171.433 82.2435 166.355 84.6 160.106 84.6C153.855 84.6 148.734 82.2423 144.885 77.5379L144.879 77.5299L144.872 77.5218C141.12 72.8043 139.366 65.9476 139.366 57.2C139.366 48.4524 141.12 41.5957 144.872 36.8782L144.879 36.8701L144.885 36.8621ZM147.214 38.7535C144.064 42.7188 142.366 48.7851 142.366 57.2C142.366 65.6147 144.064 71.6809 147.214 75.6462C150.468 79.619 154.719 81.6 160.106 81.6C165.497 81.6 169.691 79.6178 172.844 75.6542L172.851 75.6461L172.857 75.6381C176.1 71.6746 177.846 65.6128 177.846 57.2C177.846 48.7873 176.1 42.7254 172.857 38.7619L172.851 38.7539L172.844 38.7458C169.691 34.7822 165.497 32.8 160.106 32.8C154.719 32.8 150.468 34.7809 147.214 38.7535Z" fill="url(#paint0_linear_3_12)"/>
<defs>
<linearGradient id="paint0_linear_3_12" x1="105.927" y1="29.4355" x2="207.963" y2="31.9072" gradientUnits="userSpaceOnUse">
<stop stop-color="#4DB3FF"/>
<stop offset="1" stop-color="#A876F9"/>
</linearGradient>
</defs>
</svg>
