<svg width="21" height="14" viewBox="0 0 21 14" fill="none" xmlns="http://www.w3.org/2000/svg">
<g clip-path="url(#clip0_204_1601)">
<path d="M0 0H25V14H0V0Z" fill="#2D2D2D"/>
<path d="M0 1.0769H25V2.15383H0V1.0769Z" fill="white"/>
<path d="M0 3.23071H25V4.30764H0V3.23071Z" fill="white"/>
<path d="M0 5.38477H25V6.46169H0V5.38477Z" fill="white"/>
<path d="M0 7.53833H25V8.61527H0V7.53833Z" fill="white"/>
<path d="M0 9.69238H25V10.7693H0V9.69238Z" fill="white"/>
<path d="M0 11.8459H25V12.9229H0V11.8459Z" fill="white"/>
<path d="M0 0.000244141H10V7.53868H0V0.000244141Z" fill="#393939"/>
<path d="M1.13411 0.798584L1.26018 1.21461L1.67101 1.21368L1.3381 1.46982L1.46588 1.88525L1.13406 1.62753L0.802221 1.88521L0.930048 1.46979L0.597168 1.21361L1.008 1.21458L1.13411 0.798584Z" fill="white"/>
<path d="M2.42269 0.798584L2.54876 1.21461L2.95959 1.21368L2.62668 1.46982L2.75446 1.88525L2.42264 1.62753L2.0908 1.88521L2.21862 1.46979L1.88574 1.21361L2.29657 1.21458L2.42269 0.798584Z" fill="white"/>
<path d="M3.71175 0.798584L3.83782 1.21461L4.24865 1.21368L3.91575 1.46982L4.04352 1.88525L3.7117 1.62753L3.37986 1.88521L3.50769 1.46979L3.1748 1.21361L3.58564 1.21458L3.71175 0.798584Z" fill="white"/>
<path d="M4.99984 0.798584L5.12591 1.21461L5.53674 1.21368L5.20383 1.46982L5.33161 1.88525L4.99979 1.62753L4.66795 1.88521L4.79577 1.46979L4.46289 1.21361L4.87372 1.21458L4.99984 0.798584Z" fill="white"/>
<path d="M6.28841 0.798584L6.41448 1.21461L6.82531 1.21368L6.4924 1.46982L6.62018 1.88525L6.28837 1.62753L5.95652 1.88521L6.08435 1.46979L5.75146 1.21361L6.16229 1.21458L6.28841 0.798584Z" fill="white"/>
<path d="M7.57747 0.798584L7.70354 1.21461L8.11437 1.21368L7.78146 1.46982L7.90924 1.88525L7.57742 1.62753L7.24558 1.88521L7.37341 1.46979L7.04053 1.21361L7.45136 1.21458L7.57747 0.798584Z" fill="white"/>
<path d="M8.86557 0.798584L8.99164 1.21461L9.40247 1.21368L9.06956 1.46982L9.19734 1.88525L8.86552 1.62753L8.53367 1.88521L8.6615 1.46979L8.32861 1.21361L8.73945 1.21458L8.86557 0.798584Z" fill="white"/>
<path d="M8.86557 2.44043L8.99164 2.85645L9.40247 2.85553L9.06956 3.11166L9.19734 3.52709L8.86552 3.26937L8.53367 3.52705L8.6615 3.11164L8.32861 2.85546L8.73945 2.85643L8.86557 2.44043Z" fill="white"/>
<path d="M7.57747 2.44043L7.70354 2.85645L8.11437 2.85553L7.78146 3.11166L7.90924 3.5271L7.57742 3.26938L7.24558 3.52705L7.37341 3.11164L7.04053 2.85546L7.45136 2.85643L7.57747 2.44043Z" fill="white"/>
<path d="M6.28841 2.44043L6.41448 2.85645L6.82531 2.85553L6.4924 3.11167L6.62018 3.5271L6.28836 3.26938L5.95652 3.52706L6.08435 3.11164L5.75146 2.85546L6.16229 2.85643L6.28841 2.44043Z" fill="white"/>
<path d="M4.99984 2.44043L5.12591 2.85645L5.53674 2.85553L5.20383 3.11166L5.33161 3.52709L4.99979 3.26937L4.66795 3.52705L4.79577 3.11163L4.46289 2.85546L4.87372 2.85643L4.99984 2.44043Z" fill="white"/>
<path d="M3.71175 2.44043L3.83782 2.85645L4.24865 2.85553L3.91575 3.11166L4.04352 3.52709L3.7117 3.26937L3.37986 3.52705L3.50769 3.11163L3.1748 2.85546L3.58564 2.85643L3.71175 2.44043Z" fill="white"/>
<path d="M2.42269 2.44043L2.54876 2.85645L2.95959 2.85553L2.62668 3.11166L2.75446 3.52709L2.42264 3.26937L2.0908 3.52705L2.21862 3.11163L1.88574 2.85546L2.29657 2.85643L2.42269 2.44043Z" fill="white"/>
<path d="M1.13411 2.44043L1.26018 2.85645L1.67101 2.85553L1.3381 3.11166L1.46588 3.52709L1.13406 3.26937L0.802221 3.52705L0.930048 3.11164L0.597168 2.85546L1.008 2.85643L1.13411 2.44043Z" fill="white"/>
<path d="M1.13412 4.04004L1.26018 4.45607L1.67102 4.45514L1.33811 4.71128L1.46589 5.12671L1.13407 4.86899L0.802222 5.12667L0.93005 4.71125L0.597168 4.45507L1.008 4.45604L1.13412 4.04004Z" fill="white"/>
<path d="M2.42269 4.04004L2.54876 4.45607L2.95959 4.45514L2.62668 4.71128L2.75446 5.12671L2.42264 4.86899L2.0908 5.12667L2.21862 4.71125L1.88574 4.45507L2.29657 4.45604L2.42269 4.04004Z" fill="white"/>
<path d="M3.71175 4.04004L3.83782 4.45607L4.24865 4.45514L3.91575 4.71128L4.04352 5.12671L3.7117 4.86899L3.37986 5.12667L3.50769 4.71125L3.1748 4.45507L3.58564 4.45604L3.71175 4.04004Z" fill="white"/>
<path d="M4.99984 4.04004L5.12591 4.45607L5.53674 4.45514L5.20383 4.71128L5.33161 5.12671L4.99979 4.86899L4.66795 5.12667L4.79577 4.71125L4.46289 4.45507L4.87372 4.45604L4.99984 4.04004Z" fill="white"/>
<path d="M6.28841 4.04004L6.41448 4.45606L6.82531 4.45513L6.4924 4.71127L6.62018 5.1267L6.28836 4.86898L5.95652 5.12666L6.08435 4.71124L5.75146 4.45507L6.16229 4.45604L6.28841 4.04004Z" fill="white"/>
<path d="M7.57747 4.04004L7.70354 4.45607L8.11437 4.45514L7.78146 4.71128L7.90924 5.12671L7.57742 4.86899L7.24558 5.12667L7.37341 4.71125L7.04053 4.45507L7.45136 4.45604L7.57747 4.04004Z" fill="white"/>
<path d="M8.86604 4.04004L8.9921 4.45606L9.40292 4.45513L9.07002 4.71127L9.1978 5.1267L8.86599 4.86898L8.53415 5.12666L8.66198 4.71124L8.3291 4.45507L8.73992 4.45604L8.86604 4.04004Z" fill="white"/>
<path d="M8.86604 5.65332L8.9921 6.06934L9.40292 6.06842L9.07002 6.32455L9.1978 6.73998L8.86599 6.48227L8.53415 6.73994L8.66198 6.32453L8.3291 6.06835L8.73992 6.06932L8.86604 5.65332Z" fill="white"/>
<path d="M7.57747 5.65332L7.70354 6.06934L8.11437 6.06842L7.78146 6.32455L7.90924 6.73998L7.57742 6.48226L7.24558 6.73994L7.37341 6.32453L7.04053 6.06835L7.45136 6.06932L7.57747 5.65332Z" fill="white"/>
<path d="M6.28841 5.65332L6.41448 6.06934L6.82531 6.06842L6.4924 6.32455L6.62018 6.73998L6.28837 6.48226L5.95652 6.73994L6.08435 6.32453L5.75146 6.06835L6.16229 6.06932L6.28841 5.65332Z" fill="white"/>
<path d="M4.99984 5.65332L5.12591 6.06934L5.53674 6.06842L5.20383 6.32455L5.33161 6.73998L4.99979 6.48227L4.66795 6.73994L4.79577 6.32453L4.46289 6.06835L4.87372 6.06932L4.99984 5.65332Z" fill="white"/>
<path d="M3.71175 5.65332L3.83782 6.06934L4.24865 6.06842L3.91575 6.32455L4.04352 6.73998L3.7117 6.48226L3.37986 6.73994L3.50769 6.32453L3.1748 6.06835L3.58564 6.06932L3.71175 5.65332Z" fill="white"/>
<path d="M2.42269 5.65332L2.54876 6.06934L2.95959 6.06842L2.62668 6.32455L2.75446 6.73998L2.42264 6.48226L2.0908 6.73994L2.21862 6.32453L1.88574 6.06835L2.29657 6.06932L2.42269 5.65332Z" fill="white"/>
<path d="M1.13411 5.65332L1.26018 6.06934L1.67101 6.06842L1.3381 6.32455L1.46588 6.73998L1.13406 6.48226L0.802221 6.73994L0.930048 6.32453L0.597168 6.06835L1.008 6.06932L1.13411 5.65332Z" fill="white"/>
</g>
<defs>
<clipPath id="clip0_204_1601">
<rect width="21.0006" height="14" rx="2" fill="white"/>
</clipPath>
</defs>
</svg>
