<svg width="76" height="76" viewBox="0 0 76 76" fill="none" xmlns="http://www.w3.org/2000/svg">
<path d="M37.9999 47.5C37.9999 56.2444 30.9111 63.3333 22.1666 63.3333C13.4221 63.3333 6.33325 56.2444 6.33325 47.5" stroke="#0073C4" stroke-width="2" stroke-linecap="round"/>
<path d="M69.6667 47.5C69.6667 56.2444 62.5778 63.3333 53.8333 63.3333C45.0889 63.3333 38 56.2444 38 47.5" stroke="#0073C4" stroke-width="2" stroke-linecap="round"/>
<path d="M53.8333 12.6667C59.0133 12.6667 63.6126 15.1543 66.5012 19.0001" stroke="#0073C4" stroke-width="2" stroke-linecap="round"/>
<path d="M22.1664 12.6667C16.9863 12.6667 12.3872 15.1543 9.49854 19.0001" stroke="#0073C4" stroke-width="2" stroke-linecap="round"/>
<path d="M37.9999 47.5C37.9999 41.1667 50.6666 28.5 50.6666 28.5H25.3333C25.3333 28.5 37.9999 41.1667 37.9999 47.5Z" fill="#0073C4" stroke="#0073C4" stroke-width="2" stroke-linejoin="round"/>
</svg>
