<svg width="52" height="52" viewBox="0 0 52 52" fill="none" xmlns="http://www.w3.org/2000/svg">
<path fill-rule="evenodd" clip-rule="evenodd" d="M33.8313 0.000366211C35.2154 0.000366211 36.3373 1.10899 36.3373 2.47656L36.3374 49.5242C36.3374 50.8917 35.2154 52.0004 33.8313 52.0004C32.4473 52.0004 31.3253 50.8917 31.3253 49.5242L31.3253 2.47656C31.3253 1.10899 32.4473 0.000366211 33.8313 0.000366211ZM26.3133 6.80989C27.6973 6.80989 28.8193 7.91852 28.8193 9.28608L28.8193 42.7147C28.8193 44.0822 27.6973 45.1908 26.3133 45.1908C24.9292 45.1908 23.8072 44.0822 23.8072 42.7147L23.8072 9.28608C23.8072 7.91852 24.9292 6.80989 26.3133 6.80989ZM10.6506 9.90513C12.0346 9.90513 13.1566 11.0138 13.1566 12.3813L13.1566 39.6194C13.1566 40.987 12.0346 42.0956 10.6506 42.0956C9.26656 42.0956 8.14458 40.987 8.14458 39.6194L8.14458 12.3813C8.14458 11.0138 9.26656 9.90513 10.6506 9.90513ZM41.9759 9.90513C43.3599 9.90513 44.4819 11.0138 44.4819 12.3813V39.6194C44.4819 40.987 43.3599 42.0956 41.9759 42.0956C40.5919 42.0956 39.4699 40.987 39.4699 39.6194L39.4699 12.3813C39.4699 11.0138 40.5919 9.90513 41.9759 9.90513ZM18.1687 13.6194C19.5527 13.6194 20.6747 14.728 20.6747 16.0956V35.9051C20.6747 37.2727 19.5527 38.3813 18.1687 38.3813C16.7846 38.3813 15.6627 37.2727 15.6627 35.9051L15.6627 16.0956C15.6627 14.728 16.7846 13.6194 18.1687 13.6194ZM2.50602 16.7147C3.89006 16.7147 5.01205 17.8233 5.01205 19.1908V32.8099C5.01205 34.1775 3.89006 35.2861 2.50602 35.2861C1.12199 35.2861 0 34.1775 0 32.8099V19.1908C0 17.8233 1.12199 16.7147 2.50602 16.7147ZM49.494 19.8099C50.878 19.8099 52 20.9185 52 22.2861V29.7147C52 31.0822 50.878 32.1908 49.494 32.1908C48.1099 32.1908 46.988 31.0822 46.988 29.7147V22.2861C46.988 20.9185 48.1099 19.8099 49.494 19.8099Z" fill="white"/>
</svg>
