<svg width="36" height="30" viewBox="0 0 36 30" fill="none" xmlns="http://www.w3.org/2000/svg">
<path fill-rule="evenodd" clip-rule="evenodd" d="M22.6863 0.857822L35.4142 13.5857C36.1953 14.3668 36.1953 15.6331 35.4142 16.4142L22.6863 29.1421C21.9052 29.9231 20.6389 29.9231 19.8579 29.1421C19.0768 28.361 19.0768 27.0947 19.8579 26.3137L29.1716 17L2 17C0.895429 17 -1.03809e-06 16.1045 -9.65667e-07 15C-8.93244e-07 13.8954 0.89543 13 2 13L29.1716 13L19.8579 3.68625C19.0768 2.9052 19.0768 1.63887 19.8579 0.857822C20.6389 0.0767729 21.9052 0.0767729 22.6863 0.857822Z" fill="white"/>
</svg>
