<svg width="55" height="40" viewBox="0 0 55 40" fill="none" xmlns="http://www.w3.org/2000/svg">
<path d="M46.0663 3.31578C42.6245 1.78105 38.9337 0.650328 35.0748 0.00271665C35.0045 -0.00978206 34.9343 0.0214529 34.8981 0.0839242C34.4235 0.904367 33.8977 1.9747 33.5295 2.81598C29.3789 2.21211 25.2497 2.21211 21.1842 2.81598C20.816 1.956 20.2711 0.904367 19.7943 0.0839242C19.7581 0.0235372 19.6879 -0.00769771 19.6176 0.00271665C15.7608 0.648259 12.07 1.77898 8.62613 3.31578C8.59632 3.32827 8.57076 3.34912 8.5538 3.37617C1.55316 13.5403 -0.364611 23.4545 0.576183 33.2458C0.580439 33.2937 0.60811 33.3396 0.646423 33.3687C5.26525 36.6651 9.73937 38.6663 14.1304 39.9927C14.2007 40.0136 14.2751 39.9886 14.3199 39.9323C15.3586 38.5538 16.2845 37.1003 17.0783 35.5718C17.1252 35.4823 17.0805 35.3761 16.9847 35.3407C15.5161 34.7993 14.1176 34.1392 12.7724 33.3895C12.666 33.3292 12.6575 33.1812 12.7554 33.1104C13.0385 32.9043 13.3216 32.6898 13.5919 32.4732C13.6408 32.4337 13.709 32.4253 13.7665 32.4503C22.6039 36.3715 32.1715 36.3715 40.9047 32.4503C40.9622 32.4233 41.0303 32.4316 41.0813 32.4712C41.3517 32.6877 41.6348 32.9043 41.92 33.1104C42.0179 33.1812 42.0115 33.3292 41.9051 33.3895C40.5599 34.1537 39.1615 34.7993 37.6907 35.3386C37.5949 35.374 37.5523 35.4823 37.5992 35.5718C38.4101 37.0982 39.336 38.5517 40.3555 39.9303C40.3981 39.9886 40.4747 40.0136 40.545 39.9927C44.9573 38.6663 49.4314 36.6651 54.0502 33.3687C54.0907 33.3396 54.1163 33.2958 54.1205 33.2479C55.2465 21.9281 52.2346 12.0951 46.1365 3.37824C46.1216 3.34912 46.0961 3.32827 46.0663 3.31578ZM18.3981 27.2839C15.7374 27.2839 13.5451 24.9101 13.5451 21.9947C13.5451 19.0794 15.6949 16.7055 18.3981 16.7055C21.1225 16.7055 23.2936 19.1002 23.251 21.9947C23.251 24.9101 21.1012 27.2839 18.3981 27.2839ZM36.3412 27.2839C33.6806 27.2839 31.4883 24.9101 31.4883 21.9947C31.4883 19.0794 33.638 16.7055 36.3412 16.7055C39.0657 16.7055 41.2367 19.1002 41.1942 21.9947C41.1942 24.9101 39.0657 27.2839 36.3412 27.2839Z" fill="white"/>
</svg>
