<svg width="46" height="46" viewBox="0 0 46 46" fill="none" xmlns="http://www.w3.org/2000/svg">
<path fill-rule="evenodd" clip-rule="evenodd" d="M22.8511 0C10.428 0 0.353027 10.558 0.353027 23.5844C0.353027 34.0018 6.79928 42.8416 15.7402 45.9597C16.8661 46.1755 17.2761 45.4471 17.2761 44.8233C17.2761 44.263 17.2567 42.7805 17.2457 40.8117C10.9874 42.2379 9.6669 37.6514 9.6669 37.6514C8.64343 34.9268 7.16828 34.2017 7.16828 34.2017C5.12528 32.7381 7.32296 32.7685 7.32296 32.7685C9.58112 32.9347 10.7691 35.1977 10.7691 35.1977C12.7761 38.8022 16.0358 37.7614 17.3177 37.1577C17.5219 35.6334 18.1036 34.594 18.7459 34.0048C13.7498 33.4096 8.4969 31.386 8.4969 22.3493C8.4969 19.7753 9.37412 17.6706 10.8133 16.0217C10.5812 15.425 9.80921 13.0279 11.0343 9.78067C11.0343 9.78067 12.9224 9.1466 17.221 12.1981C19.0151 11.6755 20.9408 11.4134 22.8536 11.4049C24.7652 11.4134 26.6896 11.6755 28.4865 12.1981C32.7823 9.1466 34.6675 9.78067 34.6675 9.78067C35.8954 13.0279 35.1234 15.425 34.8928 16.0217C36.3347 17.6706 37.2049 19.7753 37.2049 22.3493C37.2049 31.409 31.9439 33.4025 26.9326 33.9859C27.7392 34.714 28.4589 36.1531 28.4589 38.3536C28.4589 41.5065 28.4313 44.0501 28.4313 44.8233C28.4313 45.453 28.8372 46.187 29.9782 45.9567C38.9121 42.8327 45.353 33.9989 45.353 23.5844C45.353 10.558 35.2781 0 22.8511 0Z" fill="white"/>
</svg>
