<svg width="44" height="35" viewBox="0 0 44 35" fill="none" xmlns="http://www.w3.org/2000/svg">
<path d="M43.2941 4.12389C41.6706 4.90941 40.0471 5.17125 38.1529 5.43309C40.0471 4.38573 41.4 2.81469 41.9412 0.719969C40.3176 1.76733 38.4235 2.29101 36.2588 2.81469C34.6353 1.24365 32.2 0.196289 29.7647 0.196289C24.0824 0.196289 19.7529 5.43309 21.1059 10.6699C13.8 10.4081 7.30588 7.00413 2.70588 1.76733C0.270588 5.69493 1.62353 10.6699 5.41176 13.2883C4.05882 13.2883 2.70588 12.7646 1.35294 12.2409C1.35294 16.1685 4.32941 19.8343 8.38824 20.8817C7.03529 21.1435 5.68235 21.4053 4.32941 21.1435C5.41177 24.5474 8.65882 27.1658 12.7176 27.1658C9.47059 29.5224 4.6 30.8316 0 30.3079C4.05882 32.6645 8.65882 34.2355 13.5294 34.2355C30.0353 34.2355 39.2353 20.8817 38.6941 8.57517C40.5882 7.52781 42.2118 5.95677 43.2941 4.12389Z" fill="white"/>
</svg>
