<svg width="64" height="70" viewBox="0 0 64 70" fill="none" xmlns="http://www.w3.org/2000/svg">
<path d="M31.9997 43.7498C31.9997 51.8038 26.0301 58.3331 18.6663 58.3331C11.3026 58.3331 5.33301 51.8038 5.33301 43.7498" stroke="white" stroke-width="2" stroke-linecap="round"/>
<path d="M58.6667 43.7498C58.6667 51.8038 52.6971 58.3331 45.3333 58.3331C37.9696 58.3331 32 51.8038 32 43.7498" stroke="white" stroke-width="2" stroke-linecap="round"/>
<path d="M45.333 11.6665C49.6951 11.6665 53.5682 13.9577 56.0007 17.4998" stroke="white" stroke-width="2" stroke-linecap="round"/>
<path d="M18.6664 11.6665C14.3042 11.6665 10.4313 13.9577 7.99878 17.4998" stroke="white" stroke-width="2" stroke-linecap="round"/>
<path d="M32 43.75C32 37.9167 42.6667 26.25 42.6667 26.25H21.3334C21.3334 26.25 32 37.9167 32 43.75Z" fill="white" stroke="white" stroke-width="2" stroke-linejoin="round"/>
</svg>
