<svg width="1920" height="102" viewBox="0 0 1920 102" fill="none" xmlns="http://www.w3.org/2000/svg">
<path d="M-167.68 96.0001V6.40009H-99.8399V28.1601H-144V45.4401H-110.08V65.9201H-144V96.0001H-167.68Z" fill="white"/>
<path d="M-97.9399 96.0001L-73.6199 6.40009H-30.0999L-5.77994 96.0001H-30.0999L-34.5799 78.0801H-69.1399L-73.6199 96.0001H-97.9399ZM-64.0199 57.6001H-39.6999L-47.3799 28.1601H-56.3399L-64.0199 57.6001Z" fill="white"/>
<path d="M-0.0549469 67.2001H24.2651C25.0331 69.3334 26.1851 71.1681 27.7211 72.7041C31.3051 76.2881 36.3397 78.0801 42.8251 78.0801C47.3477 78.0801 50.7184 77.3548 52.9371 75.9041C55.1557 74.4534 56.2651 72.6188 56.2651 70.4001C56.2651 69.4614 56.0091 68.6081 55.4971 67.8401C55.0704 66.9868 54.3024 66.2188 53.1931 65.5361C52.1691 64.8534 51.1451 64.2988 50.1211 63.8721C49.0971 63.3601 47.6037 62.8481 45.6411 62.3361C43.7637 61.7388 42.1851 61.2694 40.9051 60.9281C39.6251 60.5868 37.7477 60.1174 35.2731 59.5201C32.8837 58.9228 31.0491 58.4534 29.7691 58.1121C21.6624 55.8934 15.177 52.8214 10.313 48.8961C5.53438 44.9708 3.14505 39.3388 3.14505 32.0001C3.14505 24.2348 6.47306 17.6214 13.1291 12.1601C19.8704 6.61342 28.9157 3.84009 40.2651 3.84009C54.7717 3.84009 65.6091 8.53342 72.7771 17.9201C75.9344 22.0161 78.1104 26.7094 79.3051 32.0001H54.9851C54.4731 30.6348 53.6197 29.3548 52.4251 28.1601C49.6944 25.6001 45.6411 24.3201 40.2651 24.3201C36.0837 24.3201 33.0117 24.9601 31.0491 26.2401C29.0864 27.4348 28.1051 28.9281 28.1051 30.7201C28.1051 33.1094 29.5131 35.0294 32.3291 36.4801C35.2304 37.8454 39.4544 39.1681 45.0011 40.4481C48.2437 41.2161 50.5477 41.8134 51.9131 42.2401C53.3637 42.5814 55.6251 43.2641 58.6971 44.2881C61.8544 45.2268 64.2437 46.1228 65.8651 46.9761C67.4864 47.8294 69.4064 49.0241 71.6251 50.5601C73.9291 52.0108 75.6357 53.5894 76.7451 55.2961C77.9397 56.9174 78.9637 58.9228 79.8171 61.3121C80.7557 63.7014 81.2251 66.3041 81.2251 69.1201C81.2251 77.3121 77.8544 84.2668 71.1131 89.9841C64.3717 95.7014 54.9424 98.5601 42.8251 98.5601C27.6357 98.5601 15.9451 93.3548 7.75305 82.9441C4.25438 78.4214 1.65172 73.1734 -0.0549469 67.2001Z" fill="white"/>
<path d="M88.9601 28.1601V6.40009H168.96V28.1601H140.8V96.0001H117.12V28.1601H88.9601Z" fill="white"/>
<path d="M181.06 96.0001V6.40009H250.18V28.1601H204.74V41.6001H241.22V60.8001H204.74V74.2401H250.18V96.0001H181.06Z" fill="white"/>
<path d="M266.12 96.0001V6.40009H310.92C321.587 6.40009 330.205 9.42942 336.776 15.4881C343.432 21.4614 346.76 28.8854 346.76 37.7601C346.76 49.2801 340.787 58.2401 328.84 64.6401L347.4 96.0001H321.8L305.8 69.1201H289.8V96.0001H266.12ZM289.8 47.3601H310.28C313.949 47.3601 316.893 46.4214 319.112 44.5441C321.331 42.6668 322.44 40.4054 322.44 37.7601C322.44 35.1148 321.331 32.8534 319.112 30.9761C316.893 29.0988 313.949 28.1601 310.28 28.1601H289.8V47.3601Z" fill="white"/>
<path d="M1337.71 96.0001V6.40009H1372.39C1387.16 6.40009 1399.15 10.7094 1408.36 19.3281C1417.58 27.8614 1422.19 38.4854 1422.19 51.2001C1422.19 63.9148 1417.58 74.5814 1408.36 83.2001C1399.15 91.7334 1387.16 96.0001 1372.39 96.0001H1337.71ZM1361.39 74.2401H1372.27C1380.2 74.2401 1386.35 72.1921 1390.7 68.0961C1395.05 64.0001 1397.23 58.3681 1397.23 51.2001C1397.23 44.0321 1395.05 38.4001 1390.7 34.3041C1386.35 30.2081 1380.2 28.1601 1372.27 28.1601H1361.39V74.2401Z" fill="white"/>
<path d="M1437.52 96.0001V6.40009H1506.64V28.1601H1461.2V41.6001H1497.68V60.8001H1461.2V74.2401H1506.64V96.0001H1437.52Z" fill="white"/>
<path d="M1532.69 85.1201C1523.39 76.0748 1518.74 64.7681 1518.74 51.2001C1518.74 37.6321 1523.39 26.3681 1532.69 17.4081C1542.07 8.36275 1554.06 3.84009 1568.66 3.84009C1584.78 3.84009 1597.46 9.72809 1606.67 21.5041C1610.77 26.8801 1613.67 32.7254 1615.38 39.0401H1591.06C1589.78 36.3948 1588.2 34.1761 1586.32 32.3841C1581.8 27.8614 1575.91 25.6001 1568.66 25.6001C1561.23 25.6001 1555.22 27.9468 1550.61 32.6401C1546 37.3334 1543.7 43.5201 1543.7 51.2001C1543.7 58.8801 1546 65.0668 1550.61 69.7601C1555.22 74.4534 1561.23 76.8001 1568.66 76.8001C1576.68 76.8001 1582.91 74.2401 1587.34 69.1201C1589.39 66.8161 1590.84 64.2561 1591.7 61.4401H1616.02C1614.14 68.3521 1611.11 74.5388 1606.93 80.0001C1597.8 92.3734 1585.04 98.5601 1568.66 98.5601C1554.06 98.5601 1542.07 94.0801 1532.69 85.1201Z" fill="white"/>
<path d="M1630.76 96.0001V6.40009H1699.88V28.1601H1654.44V41.6001H1690.92V60.8001H1654.44V74.2401H1699.88V96.0001H1630.76Z" fill="white"/>
<path d="M1715.82 96.0001V6.40009H1744.62L1775.98 62.7201H1777.26L1775.34 51.2001V6.40009H1799.02V96.0001H1770.22L1738.86 39.6801H1737.58L1739.5 51.2001V96.0001H1715.82Z" fill="white"/>
<path d="M1811.22 28.1601V6.40009H1891.22V28.1601H1863.06V96.0001H1839.38V28.1601H1811.22Z" fill="white"/>
<path d="M1903.32 96.0001V6.40009H1948.12C1958.78 6.40009 1967.4 9.42942 1973.97 15.4881C1980.63 21.4614 1983.96 28.8854 1983.96 37.7601C1983.96 49.2801 1977.98 58.2401 1966.04 64.6401L1984.6 96.0001H1959L1943 69.1201H1927V96.0001H1903.32ZM1927 47.3601H1947.48C1951.14 47.3601 1954.09 46.4214 1956.31 44.5441C1958.53 42.6668 1959.64 40.4054 1959.64 37.7601C1959.64 35.1148 1958.53 32.8534 1956.31 30.9761C1954.09 29.0988 1951.14 28.1601 1947.48 28.1601H1927V47.3601Z" fill="white"/>
<path d="M1991.68 96.0001L2016 6.40009H2059.52L2083.84 96.0001H2059.52L2055.04 78.0801H2020.48L2016 96.0001H1991.68ZM2025.6 57.6001H2049.92L2042.24 28.1601H2033.28L2025.6 57.6001Z" fill="white"/>
<path d="M2094.69 96.0001V6.40009H2118.36V74.2401H2161.25V96.0001H2094.69Z" fill="white"/>
<path d="M2173.37 96.0001V6.40009H2197.05V96.0001H2173.37Z" fill="white"/>
<path d="M2212.47 96.0001V74.2401L2256.62 29.4401V28.1601H2213.75V6.40009H2287.35V28.1601L2243.19 72.9601V74.2401H2288.62V96.0001H2212.47Z" fill="white"/>
<path d="M2303.99 96.0001V6.40009H2373.11V28.1601H2327.67V41.6001H2364.15V60.8001H2327.67V74.2401H2373.11V96.0001H2303.99Z" fill="white"/>
<path d="M2389.05 96.0001V6.40009H2423.74C2438.5 6.40009 2450.49 10.7094 2459.71 19.3281C2468.92 27.8614 2473.53 38.4854 2473.53 51.2001C2473.53 63.9148 2468.92 74.5814 2459.71 83.2001C2450.49 91.7334 2438.5 96.0001 2423.74 96.0001H2389.05ZM2412.73 74.2401H2423.61C2431.55 74.2401 2437.69 72.1921 2442.04 68.0961C2446.39 64.0001 2448.57 58.3681 2448.57 51.2001C2448.57 44.0321 2446.39 38.4001 2442.04 34.3041C2437.69 30.2081 2431.55 28.1601 2423.61 28.1601H2412.73V74.2401Z" fill="white"/>
<path d="M558.24 98.5601C544.245 98.5601 532.939 94.3788 524.32 86.0161C515.701 77.5681 511.392 67.2854 511.392 55.1681C511.392 41.1734 516.597 29.1414 527.008 19.0721C537.419 8.91742 550.005 3.84009 564.768 3.84009C572.021 3.84009 578.464 4.94942 584.096 7.16809C589.728 9.30142 594.208 12.2028 597.536 15.8721C600.949 19.4561 603.595 23.1681 605.472 27.0081C607.349 30.8481 608.672 34.8588 609.44 39.0401H585.248C581.92 30.0801 574.624 25.6001 563.36 25.6001C555.851 25.6001 549.451 28.3308 544.16 33.7921C538.955 39.1681 536.352 46.1228 536.352 54.6561C536.352 61.2268 538.443 66.5601 542.624 70.6561C546.891 74.7521 552.565 76.8001 559.648 76.8001C566.987 76.8001 573.216 74.2401 578.336 69.1201C580.555 66.9014 582.347 64.3414 583.712 61.4401H608.416C605.771 68.3521 602.101 74.5388 597.408 80.0001C586.912 92.3734 573.856 98.5601 558.24 98.5601Z" fill="#0F1011"/>
<path d="M616.505 96.0001L632.249 6.40009H655.929L650.169 39.6801H684.729L690.489 6.40009H714.169L698.425 96.0001H674.745L680.889 61.4401H646.329L640.185 96.0001H616.505Z" fill="#0F1011"/>
<path d="M745.085 74.2401H790.525L786.685 96.0001H717.565L733.309 6.40009H802.429L798.589 28.1601H753.149L750.845 41.6001H787.325L783.869 60.8001H747.389L745.085 74.2401Z" fill="#0F1011"/>
<path d="M879.169 6.40009L887.745 96.0001H863.809L862.529 78.0801H827.969L820.289 96.0001H795.585L835.649 6.40009H879.169ZM849.473 28.1601L836.673 57.6001H860.993L858.433 28.1601H849.473Z" fill="#0F1011"/>
<path d="M950.43 28.1601H932.894L929.054 49.9201H950.43C954.526 49.9201 957.726 48.8534 960.03 46.7201C962.334 44.5868 963.486 41.7281 963.486 38.1441C963.486 35.2428 962.377 32.8534 960.158 30.9761C958.025 29.0988 954.782 28.1601 950.43 28.1601ZM913.054 6.40009H953.63C963.87 6.40009 972.147 9.34409 978.462 15.2321C984.862 21.1201 988.062 28.2454 988.062 36.6081C988.062 46.4214 984.35 54.7414 976.926 61.5681C969.502 68.3094 960.329 71.6801 949.406 71.6801H925.342L920.99 96.0001H897.31L913.054 6.40009Z" fill="#0F1011"/>
<path d="M1020.89 74.2401H1066.33L1062.49 96.0001H993.37L1009.11 6.40009H1078.23L1074.39 28.1601H1028.95L1026.65 41.6001H1063.13L1059.67 60.8001H1023.19L1020.89 74.2401Z" fill="#0F1011"/>
<path d="M1147.17 65.7921L1159.71 96.0001H1134.11L1122.85 69.1201H1106.85L1102.11 96.0001H1078.43L1094.17 6.40009H1134.75C1145.08 6.40009 1153.44 9.17342 1159.84 14.7201C1166.32 20.2668 1169.57 27.1788 1169.57 35.4561C1169.57 42.9654 1167.43 49.2801 1163.17 54.4001C1158.98 59.5201 1153.65 63.3174 1147.17 65.7921ZM1110.69 47.3601H1132.83C1136.33 47.3601 1139.23 46.3788 1141.53 44.4161C1143.84 42.4534 1144.99 40.0641 1144.99 37.2481C1144.99 34.7734 1143.97 32.6401 1141.92 30.8481C1139.87 29.0561 1137.05 28.1601 1133.47 28.1601H1114.01L1110.69 47.3601Z" fill="#0F1011"/>
<path fill-rule="evenodd" clip-rule="evenodd" d="M522.226 88.1638L522.22 88.1585C513.023 79.1437 508.392 68.0878 508.392 55.1681C508.392 40.3311 513.949 27.5315 524.918 16.92C535.897 6.21264 549.238 0.840088 564.768 0.840088C572.317 0.840088 579.138 1.99348 585.177 4.36955C591.136 6.6295 596.032 9.75828 599.733 13.8292C603.314 17.5933 606.14 21.5448 608.167 25.6905C610.164 29.7748 611.573 34.0463 612.391 38.4981L613.041 42.0401H583.162L582.436 40.0846C580.977 36.156 578.72 33.3648 575.71 31.5166C572.662 29.6446 568.609 28.6001 563.36 28.6001C556.674 28.6001 551.048 30.9932 546.315 35.8795C541.729 40.6163 539.352 46.7837 539.352 54.6561C539.352 60.5226 541.187 65.0435 544.713 68.5023C548.312 71.9522 553.184 73.8001 559.648 73.8001C566.203 73.8001 571.666 71.5477 576.215 66.9988C578.183 65.0305 579.777 62.7576 580.998 60.1627L581.808 58.4401H612.776L611.218 62.5124C608.454 69.7348 604.611 76.2196 599.689 81.9483C588.65 94.9585 574.773 101.56 558.24 101.56C543.604 101.56 531.502 97.1644 522.231 88.1691L522.226 88.1638ZM597.408 80.0001C601.412 75.3413 604.67 70.1546 607.184 64.4401C607.617 63.4558 608.027 62.4558 608.416 61.4401H583.712C582.347 64.3414 580.555 66.9014 578.336 69.1201C573.216 74.2401 566.987 76.8001 559.648 76.8001C552.565 76.8001 546.891 74.7521 542.624 70.6561C538.443 66.5601 536.352 61.2268 536.352 54.6561C536.352 46.1228 538.955 39.1681 544.16 33.7921C549.451 28.3308 555.851 25.6001 563.36 25.6001C574.624 25.6001 581.92 30.0801 585.248 39.0401H609.44C609.255 38.0301 609.037 37.0301 608.787 36.0401C608.001 32.9312 606.896 29.9206 605.472 27.0081C603.595 23.1681 600.949 19.4561 597.536 15.8721C594.208 12.2028 589.728 9.30142 584.096 7.16809C578.464 4.94942 572.021 3.84009 564.768 3.84009C550.005 3.84009 537.419 8.91742 527.008 19.0721C516.597 29.1414 511.392 41.1734 511.392 55.1681C511.392 67.2854 515.701 77.5681 524.32 86.0161C532.939 94.3788 544.245 98.5601 558.24 98.5601C573.856 98.5601 586.912 92.3734 597.408 80.0001ZM612.932 99.0001L629.73 3.40009H659.493L653.733 36.6801H682.204L687.964 3.40009H717.742L700.944 99.0001H671.165L677.309 64.4401H648.843L642.699 99.0001H612.932ZM646.329 61.4401H680.889L674.745 96.0001H698.425L714.169 6.40009H690.489L684.729 39.6801H650.169L655.929 6.40009H632.249L616.505 96.0001H640.185L646.329 61.4401ZM783.869 60.8001H747.389L745.085 74.2401H790.525L786.685 96.0001H717.565L733.309 6.40009H802.429L798.589 28.1601H753.149L750.845 41.6001H787.325L783.869 60.8001ZM754.403 38.6001H790.913L786.377 63.8001H749.919L748.643 71.2401H794.101L789.202 99.0001H713.992L730.79 3.40009H806.005L801.106 31.1601H755.679L754.403 38.6001ZM881.896 3.40009L891.046 99.0001H861.016L859.736 81.0801H829.947L822.267 99.0001H790.957L833.704 3.40009H881.896ZM827.969 78.0801H862.529L863.809 96.0001H887.745L879.169 6.40009H835.649L795.585 96.0001H820.289L827.969 78.0801ZM836.673 57.6001H860.993L858.433 28.1601H849.473L836.673 57.6001ZM851.44 31.1601L841.249 54.6001H857.721L855.683 31.1601H851.44ZM958.198 33.2475L958.176 33.2282C956.817 32.0326 954.426 31.1601 950.43 31.1601H935.411L932.63 46.9201H950.43C954.007 46.9201 956.395 45.9977 957.992 44.5188C959.593 43.036 960.486 41.0224 960.486 38.1441C960.486 36.127 959.767 34.5747 958.22 33.2662L958.198 33.2475ZM929.054 49.9201L932.894 28.1601H950.43C954.782 28.1601 958.025 29.0988 960.158 30.9761C962.377 32.8534 963.486 35.2428 963.486 38.1441C963.486 41.7281 962.334 44.5868 960.03 46.7201C957.726 48.8534 954.526 49.9201 950.43 49.9201H929.054ZM910.535 3.40009H953.63C964.476 3.40009 973.531 6.5361 980.502 13.0319C987.486 19.461 991.062 27.3729 991.062 36.6081C991.062 47.2868 986.979 56.3995 978.957 63.7764L978.95 63.7827L978.943 63.7891C970.916 71.0782 961.002 74.6801 949.406 74.6801H927.853L923.501 99.0001H893.737L910.535 3.40009ZM925.342 71.6801H949.406C960.329 71.6801 969.502 68.3094 976.926 61.5681C984.35 54.7414 988.062 46.4214 988.062 36.6081C988.062 28.2454 984.862 21.1201 978.462 15.2321C972.147 9.34409 963.87 6.40009 953.63 6.40009H913.054L897.31 96.0001H920.99L925.342 71.6801ZM1059.67 60.8001H1023.19L1020.89 74.2401H1066.33L1062.49 96.0001H993.37L1009.11 6.40009H1078.23L1074.39 28.1601H1028.95L1026.65 41.6001H1063.13L1059.67 60.8001ZM1030.21 38.6001H1066.72L1062.18 63.8001H1025.72L1024.45 71.2401H1069.91L1065.01 99.0001H989.797L1006.6 3.40009H1081.81L1076.91 31.1601H1031.48L1030.21 38.6001ZM1094.17 6.40009H1134.75C1145.08 6.40009 1153.44 9.17342 1159.84 14.7201C1166.32 20.2668 1169.57 27.1788 1169.57 35.4561C1169.57 42.9654 1167.43 49.2801 1163.17 54.4001C1159.49 58.8991 1154.93 62.3769 1149.47 64.8333C1148.72 65.1724 1147.95 65.492 1147.17 65.7921L1159.71 96.0001H1134.11L1122.85 69.1201H1106.85L1102.11 96.0001H1078.43L1094.17 6.40009ZM1109.36 72.1201L1104.63 99.0001H1074.86L1091.66 3.40009H1134.75C1145.63 3.40009 1154.74 6.33383 1161.8 12.4469C1168.92 18.5423 1172.57 26.2745 1172.57 35.4561C1172.57 43.5677 1170.25 50.5844 1165.48 56.31C1161.58 61.0755 1156.77 64.771 1151.08 67.3979L1164.2 99.0001H1132.11L1120.85 72.1201H1109.36ZM1114.25 44.3601H1132.83C1135.73 44.3601 1137.91 43.5617 1139.59 42.1324C1141.28 40.6913 1141.99 39.1131 1141.99 37.2481C1141.99 35.7309 1141.41 34.3919 1139.94 33.1058C1138.6 31.9269 1136.56 31.1601 1133.47 31.1601H1116.54L1114.25 44.3601ZM1132.83 47.3601C1136.33 47.3601 1139.23 46.3788 1141.53 44.4161C1143.84 42.4534 1144.99 40.0641 1144.99 37.2481C1144.99 34.7734 1143.97 32.6401 1141.92 30.8481C1139.87 29.0561 1137.05 28.1601 1133.47 28.1601H1114.01L1110.69 47.3601H1132.83Z" fill="url(#paint0_linear_11_731)"/>
<defs>
<linearGradient id="paint0_linear_11_731" x1="674.616" y1="26.3473" x2="835.491" y2="33.2198" gradientUnits="userSpaceOnUse">
<stop stop-color="#4DB3FF"/>
<stop offset="1" stop-color="#A876F9"/>
</linearGradient>
</defs>
</svg>
