<svg width="45" height="46" viewBox="0 0 45 46" fill="none" xmlns="http://www.w3.org/2000/svg">
<path fill-rule="evenodd" clip-rule="evenodd" d="M36.3352 0.857422C40.9182 0.857422 44.6388 4.57826 44.6388 9.161V36.8396C44.6388 41.4223 40.9179 45.1432 36.3352 45.1432H8.65661C4.07386 45.1432 0.353027 41.4223 0.353027 36.8396V9.161C0.353027 4.57826 4.07358 0.857422 8.65661 0.857422H36.3352ZM6.9166 38.5933H13.4908V17.4584H6.9166V38.5933ZM38.0912 38.5953V27.0043C38.0912 21.3122 36.8623 16.9351 30.213 16.9351C27.017 16.9351 24.8727 18.6883 23.997 20.3501H23.907V17.4605H17.6096V38.5953H24.1702V28.1422C24.1702 25.384 24.692 22.7133 28.1106 22.7133C31.4813 22.7133 31.5244 25.8665 31.5244 28.3169V38.5953H38.0912ZM10.2065 14.5715C12.3076 14.5715 14.014 12.8665 14.014 10.7629C14.014 8.66048 12.3076 6.9541 10.2065 6.9541C8.09686 6.9541 6.39546 8.66048 6.39546 10.7629C6.39546 12.8665 8.09686 14.5715 10.2065 14.5715Z" fill="white"/>
</svg>
