<svg width="64" height="36" viewBox="0 0 64 36" fill="none" xmlns="http://www.w3.org/2000/svg">
<path d="M35.8888 18.0003C35.8888 27.9413 27.9338 36 18.1212 36C8.3087 36 0.353027 27.9395 0.353027 18.0003C0.353027 8.06114 8.30809 0 18.1212 0C27.9344 0 35.8888 8.05932 35.8888 18.0003Z" fill="white"/>
<path d="M55.3804 18.0003C55.3804 27.3576 51.4029 34.9462 46.4963 34.9462C41.5898 34.9462 37.6122 27.3576 37.6122 18.0003C37.6122 8.64302 41.5891 1.05442 46.4957 1.05442C51.4023 1.05442 55.3798 8.64059 55.3798 18.0003" fill="white"/>
<path d="M63.353 18.0003C63.353 26.3821 61.9543 33.1811 60.2285 33.1811C58.5026 33.1811 57.1045 26.3839 57.1045 18.0003C57.1045 9.61663 58.5032 2.81944 60.2285 2.81944C61.9537 2.81944 63.353 9.61602 63.353 18.0003Z" fill="white"/>
</svg>
