<svg width="47" height="46" viewBox="0 0 47 46" fill="none" xmlns="http://www.w3.org/2000/svg">
<path d="M1.16802 22.0547L11.7653 26.5989L15.8679 41.7571C15.929 41.9806 16.037 42.1836 16.1824 42.3482C16.3278 42.5128 16.5062 42.634 16.7019 42.7013C16.8976 42.7686 17.1048 42.7799 17.3052 42.7342C17.5057 42.6886 17.6933 42.5873 17.8517 42.4392L23.7598 36.9098C24.0604 36.6269 24.4345 36.4666 24.8233 36.4541C25.212 36.4416 25.5934 36.5775 25.9074 36.8406L36.565 45.7246C36.7335 45.8659 36.9302 45.9564 37.1372 45.9877C37.3441 46.019 37.5546 45.9902 37.7493 45.9039C37.944 45.8176 38.1166 45.6766 38.2513 45.4938C38.386 45.311 38.4784 45.0924 38.52 44.858L46.3285 1.72294C46.3726 1.47112 46.357 1.21039 46.2835 0.967778C46.2101 0.725161 46.0813 0.509482 45.9106 0.343094C45.7399 0.176706 45.5335 0.0656643 45.3128 0.0214761C45.0921 -0.0227121 44.8651 0.00156117 44.6553 0.091781L1.15364 19.3691C0.91666 19.4743 0.713186 19.6597 0.570205 19.9005C0.427224 20.1413 0.351492 20.4263 0.353051 20.7176C0.35461 21.0089 0.433387 21.2928 0.578935 21.5316C0.724483 21.7704 0.929926 21.9528 1.16802 22.0547ZM15.2067 24.1835L35.9239 9.52283C36.2948 9.2625 36.6772 9.83917 36.3552 10.1819L19.2633 28.4376C18.6621 29.0777 18.2739 29.9374 18.165 30.8696L17.5814 35.8289C17.5038 36.488 16.6959 36.5539 16.5349 35.9179L14.2924 26.8757C14.1689 26.374 14.1913 25.8399 14.3563 25.3541C14.5213 24.8684 14.8198 24.4574 15.2067 24.1835Z" fill="white"/>
</svg>
