<svg width="57" height="40" viewBox="0 0 57 40" fill="none" xmlns="http://www.w3.org/2000/svg">
<path d="M55.7952 8.63094C55.7952 8.63094 55.2483 4.7098 53.564 2.98806C51.4312 0.722022 49.0468 0.710913 47.953 0.577617C40.1218 -3.17891e-07 28.364 0 28.364 0H28.3421C28.3421 0 16.5843 -3.17891e-07 8.75303 0.577617C7.65928 0.710913 5.2749 0.722022 3.14209 2.98806C1.45772 4.7098 0.921777 8.63094 0.921777 8.63094C0.921777 8.63094 0.353027 13.2408 0.353027 17.8395V22.1494C0.353027 26.7481 0.91084 31.358 0.91084 31.358C0.91084 31.358 1.45771 35.2791 3.13115 37.0008C5.26397 39.2669 8.06397 39.1891 9.31084 39.4335C13.7952 39.8667 28.353 40 28.353 40C28.353 40 40.1218 39.9778 47.953 39.4113C49.0468 39.278 51.4312 39.2669 53.564 37.0008C55.2483 35.2791 55.7952 31.358 55.7952 31.358C55.7952 31.358 56.353 26.7592 56.353 22.1494V17.8395C56.353 13.2408 55.7952 8.63094 55.7952 8.63094ZM22.5671 27.3813V11.3968L37.6937 19.4168L22.5671 27.3813Z" fill="white"/>
</svg>
